<svg width="19" height="19" viewBox="0 0 19 19" fill="none" xmlns="http://www.w3.org/2000/svg">
<path d="M4.29101 4.29098H17.8649L15.9324 12.5038C15.6815 13.5701 14.73 14.3238 13.6346 14.3238H8.7639C7.69274 14.3238 6.75587 13.6026 6.48179 12.5672L4.29101 4.29098ZM4.29101 4.29098L3.40576 0.75H0.75" stroke="#595667" stroke-width="1.5" stroke-linecap="round" stroke-linejoin="round"/>
<path d="M6.94779 18.75C7.59968 18.75 8.12813 18.2215 8.12813 17.5697C8.12813 16.9178 7.59968 16.3893 6.94779 16.3893C6.29591 16.3893 5.76746 16.9178 5.76746 17.5697C5.76746 18.2215 6.29591 18.75 6.94779 18.75Z" fill="#595667"/>
<path d="M15.2107 18.75C15.8626 18.75 16.3911 18.2215 16.3911 17.5697C16.3911 16.9178 15.8626 16.3893 15.2107 16.3893C14.5589 16.3893 14.0304 16.9178 14.0304 17.5697C14.0304 18.2215 14.5589 18.75 15.2107 18.75Z" fill="#595667"/>
</svg>
